<svg xmlns="http://www.w3.org/2000/svg" viewBox="0 0 519.19 199.93"><defs><style>.cls-1{fill:#f9b117}.cls-2{fill:none;stroke:#141414;stroke-miterlimit:10;stroke-width:2px}.cls-3{fill:#0e394f}.cls-4{fill:#faca3f}.cls-6{fill:#2c6e9b}.cls-18,.cls-7{fill:#0e3964}.cls-7{opacity:.3}.cls-8{fill:#fbd766}.cls-12{fill:#062538}.cls-13{fill:#4cf58c}.cls-14{fill:#185472}.cls-15{fill:#ffcb6e}.cls-16{fill:#f7b40d}.cls-21{fill:#062c4c}.cls-22{fill:#141414}.cls-23{fill:#4d9ac4}.cls-26{fill:#fff}</style></defs><g id="Layer_2" data-name="Layer 2"><g id="Layer_1-2" data-name="Layer 1"><path class="cls-1" d="M80.67 40.05l-13.78-6.61 2.35-12.03 4.91.96-1.61 8.23 10.3 4.94-2.17 4.51z"/><path class="cls-2" d="M80.67 40.05l-13.78-6.61 2.35-12.03 4.91.96-1.61 8.23 10.3 4.94-2.17 4.51z"/><circle class="cls-3" cx="71.7" cy="18.19" r="6.23"/><circle class="cls-2" cx="71.7" cy="18.19" r="6.23"/><path class="cls-4" d="M64.18 52.6a22 22 0 0136.43-11.3L112.12 52l39.52 36.54-51.41 16-51.4 16L60.72 67.9z"/><path d="M113.69 53.29l-50.9 15.8.78-3.45A49.73 49.73 0 0078.8 60.2a47.08 47.08 0 0019.77-20.15 22.44 22.44 0 014 3z" fill="#f99f00"/><path class="cls-2" d="M360.46 179.64h21.06a24 24 0 0017-7 24 24 0 0133.94 0l4.5 4.5a24 24 0 0017 7h32.56"/><path class="cls-6" d="M510.68 174.86c-4.86-9.31-13.56-16.29-24.79-16.29A29.13 29.13 0 00458 179.43a6.48 6.48 0 006.25 8.26h35.71l11.66-1"/><path class="cls-7" d="M467.11 179.43a6.47 6.47 0 006.24 8.26h-9.14a6.48 6.48 0 01-6.25-8.26 29.13 29.13 0 0127.93-20.86 28.79 28.79 0 014.58.36 29.15 29.15 0 00-23.36 20.5z"/><path class="cls-2" d="M511.7 183.56a24.65 24.65 0 00-16.37-23.42 29.13 29.13 0 00-37.33 19.2 6.5 6.5 0 006.22 8.35h43.37a4.12 4.12 0 004.12-4.13z"/><path class="cls-8" d="M75.43 139.53H93v33.36a8.8 8.8 0 01-8.8 8.8 8.8 8.8 0 01-8.8-8.8v-33.36h.03z" transform="rotate(-17.23 84.264 160.669)"/><path class="cls-8" d="M136.56 119.71h17.6v33.36a8.8 8.8 0 01-8.8 8.8 8.8 8.8 0 01-8.8-8.8v-33.36z" transform="rotate(-17.23 145.404 140.83)"/><path class="cls-2" d="M75.43 139.53H93v33.36a8.8 8.8 0 01-8.8 8.8 8.8 8.8 0 01-8.8-8.8v-33.36h.03z" transform="rotate(-17.23 84.264 160.669)"/><path class="cls-2" d="M136.56 119.71h17.6v33.36a8.8 8.8 0 01-8.8 8.8 8.8 8.8 0 01-8.8-8.8v-33.36z" transform="rotate(-17.23 145.404 140.83)"/><path stroke-width="2.8" opacity=".7" stroke-linecap="round" stroke-linejoin="round" stroke="#fff" fill="none" d="M75.85 150.87l3.31 10.68"/><path class="cls-4" d="M82 118.36h63.44v41a18 18 0 01-18 18h-27.5a18 18 0 01-18-18v-41z" transform="rotate(-17.23 113.716 147.88)"/><path transform="rotate(-17.23 111.474 140.62)" fill="#f7b000" d="M79.73 136.71h63.44v7.78H79.73z"/><path class="cls-2" d="M82 118.36h63.44v41a18 18 0 01-18 18h-27.5a18 18 0 01-18-18v-41z" transform="rotate(-17.23 113.716 147.88)"/><path class="cls-2" d="M64.18 52.6a22 22 0 0136.43-11.3L112.12 52l38.52 36.54-50.41 16-50.4 16L60.72 67.9z"/><rect class="cls-1" x="44.68" y="57.67" width="107.22" height="81.04" rx="13.06" transform="matrix(.96 -.3 .3 .96 -24.68 33.53)"/><path d="M156.39 104.53l1.24 4a13.06 13.06 0 01-8.6 16.34l-77.46 24a13.07 13.07 0 01-16.35-8.6l-1.24-4a13.06 13.06 0 0016.34 8.6l77.47-24a13 13 0 008.6-16.34z" fill="#e59303" opacity=".5"/><rect class="cls-3" x="51.84" y="64.62" width="92.9" height="67.12" rx="7.84" transform="matrix(.96 -.3 .3 .96 -24.68 33.53)"/><path class="cls-12" d="M148.09 102l2.19 7a7.84 7.84 0 01-5.17 9.81l-73.75 22.87a7.85 7.85 0 01-9.82-5.17l-2.18-7a7.84 7.84 0 009.81 5.16l73.76-22.88a7.83 7.83 0 005.16-9.79z"/><rect class="cls-13" x="83.96" y="91.14" width="6.14" height="18.83" rx="3.07" transform="rotate(-17.23 87.053 100.594)"/><rect class="cls-13" x="105.85" y="84.35" width="6.14" height="18.83" rx="3.07" transform="rotate(-17.23 108.948 93.783)"/><rect class="cls-14" x="56.81" y="76.3" width="5.16" height="15.47" rx="2.58" transform="rotate(72.76 59.383 84.043)"/><circle class="cls-14" cx="71.03" cy="80.55" r="2.46"/><rect class="cls-15" x="54.89" y="67.92" width="20.12" height="3.61" rx="1.81" transform="rotate(-17.23 64.957 69.731)"/><circle class="cls-15" cx="77.3" cy="65.8" r="1.88"/><rect class="cls-16" x="76.73" y="47.12" width="11.42" height="2.28" rx="1.14" transform="rotate(-17.23 82.454 48.278)"/><rect class="cls-16" x="75.64" y="43.63" width="11.42" height="2.28" rx="1.14" transform="rotate(-17.23 81.365 44.77)"/><rect class="cls-16" x="107.85" y="156.6" width="17.47" height="3.49" rx="1.75" transform="rotate(-17.23 116.649 158.385)"/><rect class="cls-16" x="106.2" y="151.26" width="17.47" height="3.49" rx="1.75" transform="matrix(.96 -.3 .3 .96 -40.17 40.92)"/><rect class="cls-2" x="44.68" y="57.67" width="107.22" height="81.04" rx="13.06" transform="matrix(.96 -.3 .3 .96 -24.68 33.53)"/><path d="M409 189.43c0 5.8-118.72 10.5-222 10.5s-187-4.7-187-10.5 83.72-10.5 187-10.5 222 4.7 222 10.5zm110.19 0c0 2.35-19 4.26-35.53 4.26s-29.93-1.91-29.93-4.26 13.4-4.26 29.93-4.26 35.53 1.91 35.53 4.26z" opacity=".2" fill="#0e394f"/><path class="cls-18" d="M372.76 1H167.35a6.17 6.17 0 00-6.07 5.11l-23.84 156.62a6.16 6.16 0 006.07 7.2h213.26a6.15 6.15 0 006-5l24.67-146.16A15 15 0 00372.76 1z"/><path class="cls-2" d="M372.76 1H167.35a6.17 6.17 0 00-6.07 5.11l-23.84 156.62a6.16 6.16 0 006.07 7.2h213.26a6.15 6.15 0 006-5l24.67-146.16A15 15 0 00372.76 1z"/><path class="cls-6" d="M373 1H158.76a9.42 9.42 0 00-9.29 7.83l-24.62 161.1H351L378.3 7.39A5.39 5.39 0 00373 1z"/><path class="cls-2" d="M373 1H158.76a9.42 9.42 0 00-9.29 7.83l-24.62 161.1H351L378.3 7.39A5.39 5.39 0 00373 1z"/><path class="cls-3" d="M367.14 13H160.25l-21.83 144.93h204.77L367.14 13z"/><path class="cls-12" d="M367.73 13.22l-1.13 6H159.8l1.03-6h206.9z"/><path class="cls-12" d="M166.15 13l-21.84 144.93h-6L160.15 13h6z"/><path class="cls-13" d="M189.67 29.07h-11.12l-1.42 4.21h11.99l.55-4.21zm16 0h-12.12l-1.42 4.21h11.99l1.55-4.21zm14 0h-11.12l-.42 4.21h9.99l1.55-4.21zm9.5 0h-4.12l-1.42 4.21h4.99l.55-4.21zm-54 0h-4.12l-1.42 4.21 4.58.14.96-4.35zm12.5 9h-11.12l-1.42 4.21h11.99l.55-4.21zm15 0h-11.12l-1.42 4.21h11.99l.55-4.21zm15 0h-11.12l-.42 4.21h10.99l.55-4.21zm8.5 0h-4.12l-1.42 4.21h4.99l.55-4.21zm-53 0h-4.12l-1.42 4.21h4.83l.71-4.21z"/><path d="M27.57 168.93h228.28v21H35.29a13.68 13.68 0 01-13.69-13.68v-1.35a6 6 0 015.97-5.97z" fill="#19517f"/><path class="cls-7" d="M255.85 181.93v8H35.28a13.69 13.69 0 01-13.68-13.68v-1.35a5.81 5.81 0 01.6-2.6 13.73 13.73 0 0013.08 9.63zm98.01-19v6H125.03l.83-6h228z"/><path class="cls-18" d="M90.85 168.93h81a11 11 0 01-11 11h-59a11 11 0 01-11-11z"/><path class="cls-2" d="M90.85 168.93h81a11 11 0 01-11 11h-59a11 11 0 01-11-11z"/><path class="cls-12" d="M367.05 13L343.1 157.93H138.37L364.24 13h2.81z"/><path fill="none" d="M372.36 157.93l-4.51 3"/><rect class="cls-21" x="366.62" y="60.1" width="15.48" height="3.52" rx="1.76" transform="rotate(98.85 374.363 61.859)"/><rect class="cls-21" x="370.09" y="37.85" width="15.48" height="3.52" rx="1.76" transform="rotate(98.85 377.827 39.606)"/><rect class="cls-22" x="119.85" y="172.67" width="15.48" height="3.52" rx="1.76"/><rect class="cls-6" x="35.42" y="168.99" width="29.63" height="5.32" rx="2.66"/><circle class="cls-6" cx="69.99" cy="171.65" r="2.66"/><rect class="cls-23" x="125.61" y="99.72" width="29.63" height="5.32" rx="2.66" transform="rotate(-81.12 140.434 102.383)"/><circle class="cls-23" cx="143.47" cy="82.87" r="2.66"/><rect class="cls-23" x="162.42" y="3.99" width="29.63" height="5.32" rx="2.66"/><circle class="cls-23" cx="196.99" cy="6.65" r="2.66"/><circle cx="245.85" cy="6.93" r="3" fill="#f95d5d"/><path d="M71.57 163.93h23v5h-23zm-34.72 0h23v5h-23zm69.43 0h23v5h-23zm34.72 0h23v5h-23zm34.71 0h23v5h-23zm34.72 0h23v5h-23zm34.71 0h23v5h-23zm69.71 0h23v5h-23zm-34.86.15h23v5h-23z" fill="#033156"/><path class="cls-2" d="M71.57 163.93h23v5h-23zm-34.72 0h23v5h-23zm69.43 0h23v5h-23zm34.72 0h23v5h-23zm34.71 0h23v5h-23zm34.72 0h23v5h-23zm34.71 0h23v5h-23zm69.71 0h23v5h-23zm-34.86.15h23v5h-23zM367.04 13H160.15l-21.83 144.93h204.77L367.04 13z"/><path class="cls-26" d="M338.69 29.57h-86a8.52 8.52 0 00-8.44 7.26l-8.35 55.4a8.53 8.53 0 008.44 9.8h85.23a8.53 8.53 0 008.43-7.14l9.16-55.4a8.53 8.53 0 00-8.47-9.92z"/><path d="M347 39.5l-9.15 55.39a8.54 8.54 0 01-8.42 7.14h-85.22a8.55 8.55 0 01-8.35-6.72l102.46-65.74h.27A8.54 8.54 0 01347 39.5z" fill="#f4f3f2"/><path class="cls-2" d="M27.57 168.93h228.28v21H35.29a13.68 13.68 0 01-13.69-13.68v-1.35a6 6 0 015.97-5.97z"/><rect class="cls-18" x="234.85" y="168.93" width="137" height="21" rx="10.5"/><rect class="cls-22" x="344.37" y="177.67" width="15.48" height="3.52" rx="1.76"/><rect class="cls-22" x="321.85" y="177.67" width="15.48" height="3.52" rx="1.76"/><rect class="cls-2" x="234.85" y="168.93" width="137" height="21" rx="10.5"/><path stroke-linecap="round" stroke-linejoin="round" stroke="#fff" fill="none" d="M65.39 59.19l.87-4.43"/><circle class="cls-26" cx="66.54" cy="53.08" r=".64"/><path d="M108 60.05l17.26-5.36a7.85 7.85 0 019.74 5.17l4.2 13.56M89.42 65.8l11.43-3.55m30.5 60.82l-60 18.61a7.85 7.85 0 01-9.82-5.17L46.3 87.39a7.85 7.85 0 015.17-9.82l31.89-9.89" stroke-linecap="round" stroke-linejoin="round" stroke-width="2" fill="none" stroke="#141414"/><path class="cls-8" d="M265.39 76.4h-11.12l-1.42 4.22h11.99l.55-4.22zm16 0h-12.12l-1.41 4.22h11.98l1.55-4.22zm14 0h-11.12l-.41 4.22h9.98l1.55-4.22zm9.5 0h-4.12l-1.41 4.22h4.98l.55-4.22zm-54 0h-4.12l-1.42 4.22 4.58.13.96-4.35zm12.5 9h-11.12l-1.42 4.22h11.99l.55-4.22zm15 0h-11.12l-1.41 4.22h11.98l.55-4.22zm15 0h-11.12l-.41 4.22h10.98l.55-4.22zm8.5 0h-4.12l-1.41 4.22h4.98l.55-4.22zm-53 0h-4.12l-1.42 4.22h4.83l.71-4.22z"/><path d="M338.69 29.57h-86a8.52 8.52 0 00-8.44 7.26l-8.35 55.4a8.53 8.53 0 008.44 9.8h85.23a8.53 8.53 0 008.43-7.14l9.16-55.4a8.53 8.53 0 00-8.47-9.92z" stroke-width="1.3" stroke-miterlimit="10" stroke="#141414" fill="none"/></g></g></svg>